<?xml version="1.0" standalone="no"?><!DOCTYPE svg PUBLIC "-//W3C//DTD SVG 1.1//EN" "http://www.w3.org/Graphics/SVG/1.1/DTD/svg11.dtd"><svg t="1642643729130" class="icon" viewBox="0 0 1024 1024" version="1.1" xmlns="http://www.w3.org/2000/svg" p-id="3268" xmlns:xlink="http://www.w3.org/1999/xlink" width="200" height="200"><defs><style type="text/css"></style></defs><path d="M512 512m-256 0a256 256 0 1 0 512 0 256 256 0 1 0-512 0Z" fill="#EFAC25" p-id="3269"></path><path d="M524.8 166.4m-12.8 0l0 0q-12.8 0-12.8-12.8l0-128q0-12.8 12.8-12.8l0 0q12.8 0 12.8 12.8l0 128q0 12.8-12.8 12.8Z" fill="#EFAC25" p-id="3270"></path><path d="M524.8 1011.2m-12.8 0l0 0q-12.8 0-12.8-12.8l0-128q0-12.8 12.8-12.8l0 0q12.8 0 12.8 12.8l0 128q0 12.8-12.8 12.8Z" fill="#EFAC25" p-id="3271"></path><path d="M856.956768 877.254834m-9.050967 9.050967l0 0q-9.050967 9.050967-18.101934 0l-90.509668-90.509668q-9.050967-9.050967 0-18.101934l0 0q9.050967-9.050967 18.101934 0l90.509668 90.509668q9.050967 9.050967 0 18.101934Z" fill="#EFAC25" p-id="3272"></path><path d="M1011.2 499.2m0 12.8l0 0q0 12.8-12.8 12.8l-128 0q-12.8 0-12.8-12.8l0 0q0-12.8 12.8-12.8l128 0q12.8 0 12.8 12.8Z" fill="#EFAC25" p-id="3273"></path><path d="M851.585532 141.456942m9.050967 9.050967l0 0q9.050967 9.050967 0 18.101933l-90.509668 90.509668q-9.050967 9.050967-18.101934 0l0 0q-9.050967-9.050967 0-18.101933l90.509668-90.509668q9.050967-9.050967 18.101934 0Z" fill="#EFAC25" p-id="3274"></path><path d="M166.4 499.2m0 12.8l0 0q0 12.8-12.8 12.8l-128 0q-12.8 0-12.8-12.8l0 0q0-12.8 12.8-12.8l128 0q12.8 0 12.8 12.8Z" fill="#EFAC25" p-id="3275"></path><path d="M268.22607 262.774928m-9.050967 9.050967l0 0q-9.050967 9.050967-18.101934 0l-90.509668-90.509668q-9.050967-9.050967 0-18.101934l0 0q9.050967-9.050967 18.101934 0l90.509668 90.509668q9.050967 9.050967 0 18.101934Z" fill="#EFAC25" p-id="3276"></path><path d="M262.939132 755.793319m9.050967 9.050967l0 0q9.050967 9.050967 0 18.101933l-90.509668 90.509668q-9.050967 9.050967-18.101934 0l0 0q-9.050967-9.050967 0-18.101933l90.509668-90.509668q9.050967-9.050967 18.101934 0Z" fill="#EFAC25" p-id="3277"></path></svg>